<svg xmlns="http://www.w3.org/2000/svg" width="24" height="24" viewBox="0 0 24 24" fill="none" stroke="#FFFFFF" stroke-width="1.75" stroke-linecap="round" stroke-linejoin="round"><path d="M12 3.2 A3 3 0 1 1 12 9.2 A3 3 0 1 1 12 3.2 Z"/><path d="M12 10 A4 4 0 1 1 12 18 A4 4 0 1 1 12 10 Z"/><path d="M12 18 A2 2 0 1 1 12 22 A2 2 0 1 1 12 18 Z"/><path d="M8.2 12 4.5 10"/><path d="M15.8 12 19.5 10"/><path d="M8 15.5 4.5 16.5"/><path d="M16 15.5 19.5 16.5"/><path d="M9.6 4 7 1.9"/><path d="M14.4 4 17 1.9"/></svg>
